<svg width="12" height="14" viewBox="0 0 12 14" fill="none" xmlns="http://www.w3.org/2000/svg">
<path d="M0.207045 5.73154L5.4535 0.219239C5.60964 0.0626398 5.79701 0 6.01561 0C6.20299 0 6.39036 0.0626398 6.5465 0.219239L11.793 5.73154C12.074 6.04474 12.074 6.51454 11.7617 6.79642C11.4807 7.0783 10.981 7.0783 10.6999 6.7651L6.76511 2.59955V13.2483C6.76511 13.6868 6.42159 14 6.01561 14C5.64087 14 5.26612 13.6868 5.26612 13.2483V2.59955L1.30006 6.7651C1.019 7.0783 0.519334 7.0783 0.238274 6.79642C-0.0740144 6.51454 -0.0740144 6.01342 0.207045 5.73154Z" fill="#514C47"/>
</svg>
