<?xml version="1.0" encoding="utf-8"?>
<!-- Generator: Adobe Illustrator 16.0.0, SVG Export Plug-In . SVG Version: 6.00 Build 0)  -->
<!DOCTYPE svg PUBLIC "-//W3C//DTD SVG 1.1//EN" "http://www.w3.org/Graphics/SVG/1.1/DTD/svg11.dtd">
<svg version="1.1" id="Layer_1" xmlns="http://www.w3.org/2000/svg" xmlns:xlink="http://www.w3.org/1999/xlink" x="0px" y="0px"
	 width="450px" height="89.228px" viewBox="0 0 450 89.228" enable-background="new 0 0 450 89.228" xml:space="preserve">
<g>
	<g>
		<defs>
			<rect id="SVGID_1_" width="450" height="89.228"/>
		</defs>
		<clipPath id="SVGID_2_">
			<use xlink:href="#SVGID_1_"  overflow="visible"/>
		</clipPath>
		<path clip-path="url(#SVGID_2_)" fill="#FFFFFF" d="M233.956,25.719c-2.384-2.929-5.887-4.393-10.507-4.393
			c-4.651,0-9.183,1.663-13.598,4.987v-4.369h-21.766v10.86h7.064v24.855h-7.064v10.685h29.006V57.661h-7.24V36.778
			c2.854-2.031,5.695-3.048,8.521-3.048c1.559,0,2.671,0.493,3.333,1.48c0.662,0.986,0.993,2.568,0.993,4.746v28.388h21.811V57.661
			h-6.976V38.765C237.533,32.996,236.34,28.647,233.956,25.719 M177.487,57.661V21.944H155.72v10.86h7.065v24.855h-7.065v10.685
			h28.654V57.661H177.487z M114.749,53.598c0-1.853,0.558-3.278,1.677-4.28c1.118-1.002,2.738-1.502,4.857-1.502
			c2.649,0,5.562,1.03,8.741,3.092v4.148c-3.561,3.18-6.666,4.77-9.315,4.77C116.736,59.823,114.749,57.749,114.749,53.598
			 M139.803,25.675c-3.311-3.195-8.852-4.791-16.622-4.791c-11.332,0-18.808,3.65-22.428,10.949l11.92,2.164
			c2.473-2.474,5.313-3.709,8.521-3.709c2.942,0,5.151,0.707,6.623,2.119c1.471,1.413,2.207,3.297,2.207,5.65v3.708
			c-2.031-1.028-3.819-1.757-5.364-2.184c-1.545-0.427-3.304-0.64-5.276-0.64c-5.681,0-10.236,1.42-13.664,4.26
			c-3.429,2.841-5.144,6.617-5.144,11.324c0,4.444,1.531,7.978,4.592,10.597c3.061,2.62,7.137,3.93,12.23,3.93
			c4.208,0,8.417-1.44,12.626-4.328v3.621h22.252V57.661h-7.506V40.487C144.77,33.806,143.115,28.868,139.803,25.675 M97.397,21.326
			c-4.356,0-8.006,1.177-10.949,3.532c-2.944,2.354-4.96,5.313-6.049,8.872V21.944H58.765v10.86h8.079v24.855h-8.521v10.685h32.539
			V57.661h-9.228v-4.592c0-4.594,0.655-8.124,1.965-10.597c1.309-2.473,3.164-4.217,5.563-5.231
			c2.399-1.018,5.629-1.656,9.691-1.921V21.414C98.529,21.354,98.044,21.326,97.397,21.326 M25.188,54.194
			c-1.663-2.25-2.494-5.157-2.494-8.721c0-3.796,0.816-6.843,2.45-9.138c1.634-2.296,3.892-3.445,6.777-3.445
			c2.766,0,4.952,1.011,6.556,3.025c1.604,2.016,2.406,4.953,2.406,8.807c0,3.888-0.802,6.999-2.406,9.339
			c-1.604,2.342-3.819,3.512-6.644,3.512C29.066,57.573,26.85,56.446,25.188,54.194 M23.782,27.286V1.811H1.002v10.642h8.035v45.209
			H1.002v10.684h22.781v-5.342c4.149,4.033,8.668,6.049,13.554,6.049c3.914,0,7.365-1.082,10.353-3.245
			c2.987-2.164,5.298-5.1,6.932-8.808c1.633-3.709,2.45-7.728,2.45-12.053c0-4.298-0.832-8.285-2.495-11.967
			c-1.663-3.678-4.032-6.613-7.108-8.807c-3.077-2.193-6.6-3.289-10.575-3.289C31.889,20.884,27.519,23.018,23.782,27.286"/>
	</g>
	<g>
		<defs>
			<rect id="SVGID_3_" width="450" height="89.228"/>
		</defs>
		<clipPath id="SVGID_4_">
			<use xlink:href="#SVGID_3_"  overflow="visible"/>
		</clipPath>
		<path clip-path="url(#SVGID_4_)" fill="#929497" d="M411.811,53.907c-1.649-2.324-2.474-5.282-2.474-8.875
			c0-3.56,0.824-6.489,2.474-8.784c1.647-2.297,3.87-3.443,6.667-3.443c2.884,0,5.157,1.146,6.819,3.443
			c1.663,2.295,2.495,5.254,2.495,8.874c0,3.619-0.815,6.57-2.45,8.853c-1.633,2.281-3.893,3.421-6.776,3.421
			C415.71,57.396,413.458,56.233,411.811,53.907 M442.406,57.659V1.812h-22.031v10.639h7.329v14.747
			c-3.503-4.209-7.977-6.313-13.421-6.313c-3.797,0-7.241,1.022-10.331,3.066c-3.091,2.047-5.483,4.896-7.175,8.544
			c-1.692,3.65-2.538,7.801-2.538,12.45c0,4.503,0.846,8.595,2.538,12.274c1.691,3.679,4.04,6.57,7.042,8.675
			c3.002,2.105,6.46,3.157,10.375,3.157c4.767,0,9.271-2.075,13.51-6.228v5.521H450V57.659H442.406z M390.617,21.325
			c-4.358,0-8.007,1.179-10.95,3.532c-2.943,2.355-4.96,5.313-6.048,8.874V21.943h-21.634v10.861h8.08v24.854h-8.521v10.688h32.538
			V57.659h-9.227v-4.59c0-4.592,0.653-8.125,1.965-10.597c1.308-2.474,3.163-4.217,5.562-5.232c2.399-1.015,5.629-1.656,9.691-1.92
			V21.413C391.75,21.356,391.264,21.325,390.617,21.325 M311.941,53.6c0-1.855,0.56-3.282,1.678-4.282s2.737-1.502,4.856-1.502
			c2.648,0,5.563,1.031,8.74,3.09v4.15c-3.561,3.18-6.666,4.77-9.314,4.77C313.926,59.823,311.941,57.749,311.941,53.6
			 M336.995,25.675c-3.311-3.193-8.852-4.79-16.623-4.79c-11.332,0-18.807,3.648-22.428,10.948l11.921,2.163
			c2.472-2.472,5.312-3.709,8.521-3.709c2.943,0,5.15,0.706,6.621,2.12c1.474,1.412,2.209,3.295,2.209,5.651v3.708
			c-2.03-1.03-3.818-1.758-5.364-2.186c-1.546-0.426-3.306-0.64-5.275-0.64c-5.681,0-10.237,1.42-13.665,4.259
			c-3.429,2.842-5.143,6.617-5.143,11.326c0,4.444,1.529,7.977,4.591,10.597s7.137,3.93,12.229,3.93
			c4.209,0,8.416-1.442,12.627-4.327v3.621h22.25V57.659h-7.504V40.486C341.963,33.806,340.305,28.867,336.995,25.675
			 M268.275,32.805V21.943h-27.858v10.861h6.754l16.821,37.526l-3.046,8.212h-8.874v10.686h16.203l22.119-56.424h6.711V21.943
			H272.69v10.861h6.048l-8.211,20.706l-7.772-20.706L268.275,32.805L268.275,32.805z"/>
	</g>
	<g>
		<defs>
			<rect id="SVGID_5_" width="450" height="89.228"/>
		</defs>
		<clipPath id="SVGID_6_">
			<use xlink:href="#SVGID_5_"  overflow="visible"/>
		</clipPath>
		<path clip-path="url(#SVGID_6_)" fill="#EA272A" d="M168.57,16.245c4.485,0,8.122-3.637,8.122-8.122
			c0-4.485-3.637-8.121-8.122-8.121c-4.486,0-8.122,3.636-8.122,8.121C160.448,12.608,164.084,16.245,168.57,16.245"/>
	</g>
</g>
</svg>
